<svg width="960" height="640" viewBox="0 0 960 640" fill="none" xmlns="http://www.w3.org/2000/svg">
  <rect width="960" height="640" fill="#F2F6FD"/>
  <rect x="82" y="82" width="796" height="476" rx="36" fill="#15243A"/>
  <rect x="126" y="126" width="234" height="18" rx="9" fill="#7196EA"/>
  <rect x="126" y="182" width="416" height="20" rx="10" fill="#FFFFFF"/>
  <rect x="126" y="220" width="376" height="20" rx="10" fill="#FFFFFF"/>
  <rect x="126" y="286" width="272" height="12" rx="6" fill="#5E7499"/>
  <rect x="126" y="316" width="394" height="12" rx="6" fill="#5E7499"/>
  <rect x="126" y="346" width="356" height="12" rx="6" fill="#5E7499"/>
  <rect x="126" y="420" width="160" height="42" rx="21" fill="#3158A7"/>
  <rect x="634" y="148" width="162" height="280" rx="24" fill="#233551"/>
  <rect x="660" y="184" width="110" height="12" rx="6" fill="#91B1F3"/>
  <rect x="660" y="224" width="82" height="82" rx="20" fill="#C6D7FA"/>
  <rect x="660" y="326" width="96" height="10" rx="5" fill="#5E7499"/>
  <rect x="660" y="352" width="74" height="10" rx="5" fill="#5E7499"/>
</svg>
