<svg width="960" height="640" viewBox="0 0 960 640" fill="none" xmlns="http://www.w3.org/2000/svg">
  <rect width="960" height="640" fill="#F6F8FB"/>
  <rect x="116" y="88" width="728" height="464" rx="40" fill="#FFFFFF" stroke="#E1E8F5" stroke-width="2"/>
  <rect x="170" y="146" width="144" height="12" rx="6" fill="#B5C8F2"/>
  <rect x="170" y="190" width="440" height="26" rx="13" fill="#293A57"/>
  <rect x="170" y="232" width="372" height="26" rx="13" fill="#293A57"/>
  <rect x="170" y="308" width="264" height="14" rx="7" fill="#CBD7EC"/>
  <rect x="170" y="342" width="454" height="14" rx="7" fill="#CBD7EC"/>
  <rect x="170" y="376" width="410" height="14" rx="7" fill="#CBD7EC"/>
  <rect x="170" y="444" width="118" height="40" rx="20" fill="#E6EEFF"/>
  <rect x="302" y="444" width="118" height="40" rx="20" fill="#E6EEFF"/>
  <rect x="670" y="168" width="94" height="208" rx="20" fill="#F1F5FC"/>
  <rect x="694" y="196" width="46" height="46" rx="14" fill="#D2E1FF"/>
  <rect x="694" y="266" width="44" height="8" rx="4" fill="#A5B8D8"/>
  <rect x="694" y="288" width="34" height="8" rx="4" fill="#A5B8D8"/>
</svg>
